<svg xmlns="http://www.w3.org/2000/svg" xmlns:xlink="http://www.w3.org/1999/xlink" viewBox="0 0 32 32" version="1.1">
<g id="surface1">
<path style=" " d="M 19.125 3.9375 L 18.78125 4.03125 C 18.78125 4.03125 17.878906 4.226563 16.96875 4.78125 C 16.058594 5.335938 15 6.402344 15 8 C 15 9.597656 16.058594 10.664063 16.96875 11.21875 C 17.390625 11.476563 17.484375 11.445313 17.8125 11.5625 C 17.457031 12.539063 16.828125 14.914063 17.375 18.25 C 16.597656 16.914063 15.152344 16 13.5 16 C 12.777344 16 12.117188 16.230469 11.375 16.53125 C 10.632813 16.832031 9.847656 17.238281 9.125 17.625 C 7.683594 18.394531 6.46875 19.15625 6.46875 19.15625 L 6 19.4375 L 6 25.625 L 6.5625 25.90625 C 6.5625 25.90625 10.761719 28 16 28 C 21.238281 28 25.4375 25.90625 25.4375 25.90625 L 26 25.625 L 26 25 C 26 20 25.441406 15.65625 24.78125 12.4375 C 24.453125 10.828125 24.117188 9.511719 23.78125 8.5 C 23.445313 7.488281 23.25 6.894531 22.75 6.34375 C 22.175781 5.707031 21.367188 5.1875 20.6875 4.78125 C 20.007813 4.375 19.4375 4.09375 19.4375 4.09375 Z M 18.90625 6.09375 C 19.097656 6.191406 19.265625 6.246094 19.6875 6.5 C 20.296875 6.863281 20.992188 7.371094 21.25 7.65625 C 21.167969 7.566406 21.570313 8.214844 21.875 9.125 C 22.179688 10.035156 22.527344 11.300781 22.84375 12.84375 C 23.445313 15.773438 23.917969 19.769531 23.96875 24.3125 C 23.210938 24.65625 20.152344 26 16 26 C 11.820313 26 8.730469 24.644531 8 24.3125 L 8 20.5625 C 8.324219 20.359375 8.953125 19.96875 10.0625 19.375 C 10.746094 19.011719 11.484375 18.667969 12.125 18.40625 C 12.765625 18.144531 13.34375 18 13.5 18 C 14.769531 18 15.792969 18.941406 15.96875 20.15625 L 16.09375 21 L 20.15625 21 L 19.65625 19.65625 C 18.191406 15.636719 19.90625 11.375 19.90625 11.375 L 20.375 10.28125 L 19.21875 10.03125 C 19.21875 10.03125 18.621094 9.890625 18.03125 9.53125 C 17.441406 9.171875 17 8.742188 17 8 C 17 7.257813 17.441406 6.828125 18.03125 6.46875 C 18.464844 6.203125 18.703125 6.152344 18.90625 6.09375 Z "></path>
</g>
</svg>