<svg xmlns="http://www.w3.org/2000/svg" xmlns:xlink="http://www.w3.org/1999/xlink" viewBox="0 0 32 32" version="1.1">
<g id="surface1">
<path style=" " d="M 13.03125 4 C 11.925781 4 11 4.925781 11 6.03125 L 11 7 L 4 7 L 4 9 L 11 9 L 11 9.96875 C 11 11.066406 11.90625 11.984375 13 12 C 13.011719 12 13.019531 12 13.03125 12 L 13.9375 12.03125 L 13.96875 12.03125 C 15.074219 12.03125 16 11.105469 16 10 L 16 9.03125 L 28 9 L 28 7 L 16 7.03125 L 16 6.0625 C 16 4.964844 15.089844 4.046875 14 4.03125 L 13.96875 4.03125 L 13.0625 4 Z M 13 6 L 13.03125 6 L 13.9375 6.03125 L 13.96875 6.03125 C 13.992188 6.03125 14 6.039063 14 6.0625 L 14 10 C 14 10.011719 14.003906 10.027344 14 10.03125 L 13.96875 10.03125 L 13.0625 10 L 13.03125 10 C 13.007813 10 13 9.992188 13 9.96875 L 13 6.03125 C 13 6.019531 12.996094 6.003906 13 6 Z M 21.03125 12 C 19.925781 12 19 12.925781 19 14.03125 L 19 15 L 4 15 L 4 17 L 19 17 L 19 17.96875 C 19 19.066406 19.90625 19.984375 21 20 C 21.011719 20 21.019531 20 21.03125 20 L 21.9375 20.03125 L 21.96875 20.03125 C 23.074219 20.03125 24 19.105469 24 18 L 24 17.03125 L 28 17 L 28 15 L 24 15.03125 L 24 14.0625 C 24 12.964844 23.09375 12.046875 22 12.03125 L 21.96875 12.03125 L 21.0625 12 Z M 21 14 L 21.03125 14 L 21.9375 14.03125 L 21.96875 14.03125 C 21.992188 14.03125 22 14.039063 22 14.0625 L 22 18 C 22 18.011719 22.003906 18.027344 22 18.03125 L 21.96875 18.03125 L 21.0625 18 L 21.03125 18 C 21.007813 18 21 17.992188 21 17.96875 L 21 14.03125 C 21 14.019531 20.996094 14.003906 21 14 Z M 9.03125 20 C 7.925781 20 7 20.925781 7 22.03125 L 7 23 L 4 23 L 4 25 L 7 25 L 7 25.96875 C 7 27.066406 7.90625 27.984375 9 28 C 9.011719 28 9.019531 28 9.03125 28 L 9.9375 28.03125 L 9.96875 28.03125 C 11.074219 28.03125 12 27.105469 12 26 L 12 25.03125 L 28 25 L 28 23 L 12 23.03125 L 12 22.0625 C 12 20.964844 11.09375 20.046875 10 20.03125 L 9.96875 20.03125 L 9.0625 20 Z M 9 22 L 9.03125 22 L 9.9375 22.03125 L 9.96875 22.03125 C 9.992188 22.03125 10 22.039063 10 22.0625 L 10 26 C 10 26.011719 10.003906 26.027344 10 26.03125 L 9.96875 26.03125 L 9.0625 26 L 9.03125 26 C 9.007813 26 9 25.992188 9 25.96875 L 9 22.03125 C 9 22.019531 8.996094 22.003906 9 22 Z "></path>
</g>
</svg>